<svg xmlns="http://www.w3.org/2000/svg" width="214.831" height="36.543" viewBox="0 0 214.831 36.543"><defs><style>.a{fill:#4f8cc9;font-size:20px;font-family:Montserrat, sans-serif;font-weight:700;letter-spacing:0.06em;}.b{fill:#fff;}</style></defs><text class="a" transform="translate(32.831 5.843)"><tspan x="0" y="19">KUP</tspan><tspan class="b" y="19">TELEFONIK</tspan></text><path class="b" d="M27.441,2H14.153A4.154,4.154,0,0,0,10,6.153V34.39a4.154,4.154,0,0,0,4.153,4.153H27.441a4.154,4.154,0,0,0,4.153-4.153V6.153A4.154,4.154,0,0,0,27.441,2ZM20.8,36.882a2.492,2.492,0,1,1,2.492-2.492A2.488,2.488,0,0,1,20.8,36.882Zm7.475-6.644H13.322V6.983H28.271Z" transform="translate(-10 -2)"/></svg>